<svg width="400" height="300" viewBox="0 0 400 300" xmlns="http://www.w3.org/2000/svg">
  <!-- Background -->
  <rect width="400" height="300" fill="#f8f9fa"/>
  
  <!-- Paper texture -->
  <rect width="400" height="300" fill="url(#paper)" opacity="0.1"/>
  
  <!-- Child's drawing of a dinosaur -->
  <!-- Dinosaur body -->
  <ellipse cx="200" cy="180" rx="80" ry="40" fill="#90EE90" stroke="#2E8B57" stroke-width="3"/>
  
  <!-- Dinosaur head -->
  <ellipse cx="200" cy="140" rx="35" ry="25" fill="#90EE90" stroke="#2E8B57" stroke-width="3"/>
  
  <!-- Dinosaur eyes -->
  <circle cx="190" cy="135" r="5" fill="white"/>
  <circle cx="210" cy="135" r="5" fill="white"/>
  <circle cx="190" cy="135" r="2" fill="black"/>
  <circle cx="210" cy="135" r="2" fill="black"/>
  
  <!-- Dinosaur mouth -->
  <path d="M 185 150 Q 200 160 215 150" stroke="#FF6B6B" stroke-width="4" fill="none"/>
  
  <!-- Dinosaur spikes -->
  <polygon points="200,100 190,120 210,120" fill="#FFA500" stroke="#FF8C00" stroke-width="2"/>
  <polygon points="180,110 170,130 190,130" fill="#FFA500" stroke="#FF8C00" stroke-width="2"/>
  <polygon points="220,110 210,130 230,130" fill="#FFA500" stroke="#FF8C00" stroke-width="2"/>
  
  <!-- Dinosaur legs -->
  <rect x="170" y="200" width="8" height="30" fill="#90EE90" stroke="#2E8B57" stroke-width="2"/>
  <rect x="190" y="200" width="8" height="30" fill="#90EE90" stroke="#2E8B57" stroke-width="2"/>
  <rect x="210" y="200" width="8" height="30" fill="#90EE90" stroke="#2E8B57" stroke-width="2"/>
  <rect x="230" y="200" width="8" height="30" fill="#90EE90" stroke="#2E8B57" stroke-width="2"/>
  
  <!-- Dinosaur feet -->
  <ellipse cx="174" cy="235" rx="6" ry="4" fill="#FFD700"/>
  <ellipse cx="194" cy="235" rx="6" ry="4" fill="#FFD700"/>
  <ellipse cx="214" cy="235" rx="6" ry="4" fill="#FFD700"/>
  <ellipse cx="234" cy="235" rx="6" ry="4" fill="#FFD700"/>
  
  <!-- Dinosaur tail -->
  <path d="M 280 180 Q 320 160 340 180" stroke="#90EE90" stroke-width="8" fill="none"/>
  
  <!-- Ground -->
  <rect x="0" y="250" width="400" height="50" fill="#98FB98" stroke="#32CD32" stroke-width="2"/>
  
  <!-- Grass tufts -->
  <path d="M 50 250 Q 45 240 50 230 Q 55 240 50 250" fill="#228B22"/>
  <path d="M 150 250 Q 145 240 150 230 Q 155 240 150 250" fill="#228B22"/>
  <path d="M 250 250 Q 245 240 250 230 Q 255 240 250 250" fill="#228B22"/>
  <path d="M 350 250 Q 345 240 350 230 Q 355 240 350 250" fill="#228B22"/>
  
  <!-- Sun -->
  <circle cx="320" cy="60" r="25" fill="#FFD700" stroke="#FFA500" stroke-width="3"/>
  <g stroke="#FFA500" stroke-width="3">
    <line x1="320" y1="30" x2="320" y2="20"/>
    <line x1="320" y1="100" x2="320" y2="90"/>
    <line x1="290" y1="60" x2="280" y2="60"/>
    <line x1="350" y1="60" x2="360" y2="60"/>
    <line x1="305" y1="35" x2="295" y2="25"/>
    <line x1="335" y1="85" x2="345" y2="95"/>
    <line x1="295" y1="85" x2="285" y2="95"/>
    <line x1="335" y1="35" x2="345" y2="25"/>
  </g>
  
  <!-- Clouds -->
  <ellipse cx="80" cy="80" rx="20" ry="15" fill="white" stroke="#87CEEB" stroke-width="2"/>
  <ellipse cx="100" cy="80" rx="15" ry="12" fill="white" stroke="#87CEEB" stroke-width="2"/>
  <ellipse cx="120" cy="80" rx="18" ry="14" fill="white" stroke="#87CEEB" stroke-width="2"/>
  
  <ellipse cx="280" cy="100" rx="15" ry="12" fill="white" stroke="#87CEEB" stroke-width="2"/>
  <ellipse cx="300" cy="100" rx="20" ry="15" fill="white" stroke="#87CEEB" stroke-width="2"/>
  <ellipse cx="320" cy="100" rx="12" ry="10" fill="white" stroke="#87CEEB" stroke-width="2"/>
  
  <!-- Crayon strokes effect -->
  <g opacity="0.3">
    <line x1="180" y1="160" x2="220" y2="160" stroke="#90EE90" stroke-width="2"/>
    <line x1="185" y1="165" x2="225" y2="165" stroke="#90EE90" stroke-width="2"/>
    <line x1="190" y1="170" x2="230" y2="170" stroke="#90EE90" stroke-width="2"/>
  </g>
  
  <!-- Paper fold line -->
  <line x1="0" y1="150" x2="400" y2="150" stroke="#D3D3D3" stroke-width="2" stroke-dasharray="5,5"/>
  
  <!-- Fingerprint smudge -->
  <ellipse cx="50" cy="200" rx="8" ry="6" fill="#C0C0C0" opacity="0.3"/>
  
  <!-- Definitions -->
  <defs>
    <pattern id="paper" patternUnits="userSpaceOnUse" width="20" height="20">
      <rect width="20" height="20" fill="white"/>
      <circle cx="10" cy="10" r="1" fill="#E0E0E0"/>
    </pattern>
  </defs>
</svg> 